PathFileType	4	(X/Y/Z)	Patient4_TMGait_0pt3_03_left_12.trc.trc
DataRate	CameraRate	NumFrames	NumMarkers	Units	OrigDataRate	OrigDataStartFrame	OrigNumFrames
52.044609665427	52.044609665427	6	33	mm	52.044609665427	71	       141
Frame#	Time	Sacral			L.Shoulder			Chest			R.Shoulder			Neck			R.ASIS			L.ASIS			R.Thigh.Superior			R.Thigh.Lateral			R.Thigh.Inferior			R.Patella			L.Thigh.Superior			L.Thigh.Lateral			L.Thigh.Inferior			L.Patella			L.Shank.Superior			L.Shank.Lateral			L.Shank.Inferior			R.Shank.Superior			R.Shank.Lateral			R.Shank.Inferior			R.Heel			R.Midfoot.Superior			R.Midfoot.Lateral			R.Toe			L.Heel			L.Midfoot.Lateral			L.Midfoot.Superior			L.Toe			L.Elbow			L.Wrist			R.Elbow			R.Wrist			
		X1	Y1	Z1	X2	Y2	Z2	X3	Y3	Z3	X4	Y4	Z4	X5	Y5	Z5	X6	Y6	Z6	X7	Y7	Z7	X8	Y8	Z8	X9	Y9	Z9	X10	Y10	Z10	X11	Y11	Z11	X12	Y12	Z12	X13	Y13	Z13	X14	Y14	Z14	X15	Y15	Z15	X16	Y16	Z16	X17	Y17	Z17	X18	Y18	Z18	X19	Y19	Z19	X20	Y20	Z20	X21	Y21	Z21	X22	Y22	Z22	X23	Y23	Z23	X24	Y24	Z24	X25	Y25	Z25	X26	Y26	Z26	X27	Y27	Z27	X28	Y28	Z28	X29	Y29	Z29	X30	Y30	Z30	X31	Y31	Z31	X32	Y32	Z32	X33	Y33	Z33	

71	23.085000000000	756.653981279532	1006.381178057900	392.132393791319	985.291566726594	1429.019740805322	236.445845722121	1045.280880844909	1360.963600323263	417.629984478459	928.350488377649	1441.366595047556	566.497087314604	932.430375049879	1493.697945368191	389.351454605794	964.717866314284	946.383474929400	549.057585734642	994.107325359688	955.342698105853	274.271931887295	1034.290282513344	765.490768122572	530.107698288974	982.587257700755	649.976703213873	603.755085197009	1071.536745233432	603.632427260975	529.320183525116	1099.439051098108	518.333045457203	553.591920402599	1015.291302193953	735.111972299038	312.148143858216	921.008476535905	622.892372797098	249.159524638417	992.310721662988	542.065078761759	321.380029372100	985.246802792277	471.948390975897	331.884320370966	947.318518055829	402.164931224311	325.772797596972	845.111361622302	297.868553328115	275.912361087816	876.127143082423	184.481276874209	353.675112740021	1072.452975401113	431.585747568166	566.457626345798	1003.162896691877	328.387567802813	633.182003160812	1063.736463382774	231.802940567909	588.435662588443	951.719668891468	49.766095138624	567.495019150119	1118.555584215453	119.530047098803	608.596603024350	1036.965529838162	44.153802655061	639.794911807751	1240.917140016150	78.884601412297	631.650151012674	732.067158744146	39.228467471947	399.277210096054	805.099320278828	35.557599380501	318.023326006270	889.803022628309	94.782288972945	344.850950739996	1017.358915634764	40.917937637879	313.891930654767	1099.801311935595	1116.202942210151	93.621695384601	1351.816505083939	1050.352514494153	115.494440969640	760.028367097021	1134.391925439475	655.157966792250	730.935912863759	875.931817686233	680.502035565524	
72	23.104214285714	756.486788754542	1005.263716527888	394.124897370735	984.544926060003	1428.411231140028	239.698720420562	1044.017224034518	1360.492405374953	421.059746259675	926.420246723948	1440.771756360402	569.517497768791	931.093748888959	1492.935925359187	392.459792022460	964.118040168921	944.897157056042	551.605431598533	994.246658272240	955.087694391181	276.822720177396	1032.586622483136	762.727372813055	532.742553869282	979.150903829933	647.331111884347	605.298970156727	1068.201917333779	600.820928945018	531.143024273859	1095.562857408104	516.847382242857	554.327279528257	1013.952370556403	734.299700047571	313.982144066736	918.549083615116	622.841289140812	250.326398526906	988.918305129320	541.213516153779	322.176266020837	981.081166866997	471.082503709664	332.486543851039	943.016595510990	401.635133058159	326.297980073280	840.295849035338	297.912552682317	276.277176915641	870.819369990134	184.241036014834	353.812694928727	1071.045440495456	430.017431026796	566.872499209248	1004.730306656183	324.741635335013	633.598722429643	1067.615334356549	229.934286760885	588.164632281289	959.739640966205	46.423715930512	567.538883072613	1125.810451594332	118.170745937681	607.198332859529	1045.627848637710	41.676621281517	638.909431413077	1248.993125890706	79.139189208800	628.981598438051	726.312221217129	39.255742825125	399.246454198575	799.314946443736	35.533319432183	318.028562374724	884.047979273559	94.723276182181	344.856193301928	1011.562614521411	40.844330213409	313.901570711293	1101.928761888094	1117.588550424185	95.875441731517	1355.657202481415	1059.681975996881	117.697007512060	756.205973021993	1134.882811676306	656.589123211313	727.161117180477	876.187943517675	681.140966109440	
73	23.123428571429	756.579183786711	1003.806588933793	396.444998634248	983.480773907703	1427.626019321984	243.190704988125	1042.706890017894	1359.922611238912	424.651338260000	924.523836834935	1439.906210333691	572.860587362830	929.589982597152	1491.967567085273	395.861194650608	963.901283179763	943.161080255828	554.325128439071	994.655373813894	954.691481732233	279.579934259099	1031.542109085134	759.821523898235	535.513234291255	976.170198463762	644.436565407759	606.717869891967	1065.541899572084	597.964509552142	532.982008191555	1092.155175179114	514.949994608385	555.049454097343	1013.176069211656	733.389600090543	315.973908783943	916.687279371248	622.627024125493	251.733723542258	986.162048522152	540.249690987615	323.216206690622	977.591648756608	470.068346333646	333.357104471590	939.251329971864	400.933839171115	327.059708273996	835.875614469149	297.961165066435	276.782644261377	865.704459408297	183.929744393404	354.032986079393	1069.433719460256	427.964444694972	567.251285291376	1005.123461528303	321.293442804609	633.693746797005	1069.513382302139	227.849892963517	587.670386281388	964.256956695000	44.145294197857	567.059342752071	1129.910572369401	116.392293322612	605.600206035535	1050.443904777674	39.821061860393	637.855469534960	1253.414194901811	77.995328969916	626.705085774169	720.566310339409	39.302175178886	399.211826685663	793.546924233748	35.523852737337	318.034482281269	878.311812775728	94.669899820382	344.877351007899	1005.773549847244	40.749689221044	313.909118958938	1103.536622031619	1118.531349216734	98.573864043062	1358.663969160056	1067.949522867705	119.993702581425	753.880463287969	1134.290709102218	658.696073826704	725.886079707529	875.263842720216	682.722381571151	
74	23.142642857143	756.939638708900	1002.148193673695	399.068801061939	982.158610490660	1426.789432596276	246.932080714359	1041.384225589764	1359.359421614586	428.420889964967	922.676334589506	1438.872577627081	576.525778767254	927.943316645467	1490.901000523068	399.564313096381	964.061196695216	941.327061623615	557.219284588635	995.339538014038	954.237569318067	282.554437310782	1031.173575875301	756.968787889489	538.397862521614	973.734459896239	641.482034726447	608.027271887610	1063.634275309220	595.267154185173	534.837163445471	1089.336022263619	512.836836435895	555.763247983528	1012.868797334077	732.411937632411	318.134156672757	915.285635063367	622.325140587310	253.383731147157	983.869838852257	539.223401032980	324.515182718472	974.598886343532	468.973020935771	334.502017569210	935.868565771680	400.141577400117	328.049940114272	831.731587212626	298.057685484716	277.425875236458	860.726565316332	183.597060986450	354.331009548167	1067.784321620576	425.581390799502	567.611321220509	1004.583810405024	318.095192733995	633.577070450214	1069.710432363487	225.574685929373	587.015640286196	965.597122081269	42.700086274692	566.206177550862	1131.192808732367	114.224205577802	603.874064432717	1051.814518061846	38.467201953134	636.762301594395	1254.641412435292	75.636669513589	624.850923838305	714.827415778298	39.380454878030	399.170943971205	787.794896241452	35.538593301054	318.042697546816	872.593537463957	94.633902867477	344.910720381467	999.990329391422	40.636020941848	313.911923852491	1104.567170027611	1119.099801025521	101.700939303353	1360.817173289763	1075.102120323184	122.420234078452	752.981468628108	1132.752058159851	661.502309897397	727.025915543146	873.322546658859	685.293550456431	
75	23.161857142857	757.558536810215	1000.428886056055	401.978413696786	980.659792396645	1426.017957914151	250.926074288511	1040.089678266255	1358.893356519345	432.380503542907	920.901007320643	1437.774504259542	580.500747150003	926.195392272071	1489.840890810566	403.566687691849	964.577319562692	939.550108395017	560.294908355741	996.279204208434	953.801679960484	285.754780896759	1031.471569009653	754.361273159340	541.364442326914	971.952475083512	638.662409593078	609.269659391898	1062.529348434641	592.909563745779	536.695937181526	1087.197299860014	510.693600826296	556.467926299911	1012.908128212529	731.401833731082	320.475210923756	914.191288348231	622.012337293497	255.275062696428	981.864094616929	538.189831815972	326.079748784998	971.920025011320	467.863379751951	335.913743044657	932.714110719059	399.341691691651	329.252409721918	827.743361277293	298.246963533335	278.204381434071	855.831042320977	183.294333338333	354.700506192496	1066.266128360290	423.041717002661	567.969751773843	1003.419994951891	315.215354640598	633.383483996002	1068.561132203834	223.187161209197	586.270999007169	964.246696998499	41.882938986206	565.156086775696	1130.112416469158	111.781453001350	602.104768089890	1050.312968585467	37.520093717977	635.746953705473	1253.252595562250	72.378664431982	623.393185245205	709.093653416045	39.508551471299	399.122421081407	782.059148960568	35.589566418406	318.055462318432	866.895278403280	94.627658057629	344.952155346304	994.213564909963	40.504593129998	313.906618869670	1104.992045121355	1119.370842688455	105.220549616840	1362.123728887890	1081.094983995481	125.011848230903	753.393784275456	1130.449276887667	665.004521958341	730.477655477630	870.586968357325	688.872250920968	
76	23.181071428571	758.409890567950	998.776626312604	405.165347641986	979.075968867501	1425.408665339147	255.167011230629	1038.863841536783	1358.593737983887	436.535458006828	919.224968966555	1436.707653084899	584.761980912216	924.398869017983	1488.879173593590	407.853812220783	965.419273876009	937.972531197707	563.562750282738	997.430407408960	953.446543629826	289.184878415107	1032.401823242389	752.165986693761	544.371480746911	970.934175808266	636.155717032441	610.508861842254	1062.238878702293	591.026609357859	538.535881983919	1085.789910638582	508.675789271566	557.162782490125	1013.157944056097	730.398668730602	323.008562750925	913.255710816631	621.758353080676	257.402840470153	979.988413680708	537.203830281888	327.904665862125	969.396898804578	466.798143563124	337.569608008410	929.655627452770	398.610472581841	330.643098274990	823.805456989421	298.571679082764	279.116457211660	850.972295716762	183.069277949944	355.133530844345	1065.023083359937	420.515368760156	568.345468501109	1001.953349470479	312.722833642049	633.250897342095	1066.444744411944	220.798007004297	585.508410513099	960.786998833050	41.516406785498	564.079244113029	1127.183967701132	109.234154642422	600.388198643534	1046.603505940746	36.902012568344	634.900845316887	1249.872435847556	68.613502760750	622.280342692161	703.363461270204	39.710207567284	399.066194411473	776.340579401399	35.690871027859	318.075130365603	861.222757060342	94.662798634550	344.996852530868	988.446021405764	40.355963232353	313.889354089288	1104.812435416228	1119.422644683912	109.080944375068	1362.616365596512	1085.887175932193	127.801468019742	754.963435241453	1127.592265346227	669.171214150382	736.116426171358	867.320696956804	693.445077726757	
